<?xml version="1.0" encoding="utf-8"?>
<!-- Generator: Adobe Illustrator 27.0.0, SVG Export Plug-In . SVG Version: 6.00 Build 0)  -->
<svg version="1.1" id="Layer_1" xmlns="http://www.w3.org/2000/svg" xmlns:xlink="http://www.w3.org/1999/xlink" x="0px" y="0px"
	 viewBox="0 0 260.27 223.31" style="enable-background:new 0 0 260.27 223.31;" xml:space="preserve">
<style type="text/css">
	.st0{fill:#6D6E71;}
	.st1{fill:#939598;}
	.st2{fill:#808285;}
	.st3{fill:#D1D3D4;}
	.st4{fill:#A7A9AC;}
	.st5{fill:#BCBEC0;}
	.st6{fill:#EA2B7B;}
	.st7{fill:#FFFFFF;}
	.st8{fill:#46C7F4;}
	.st9{fill:#94AACF;}
	.st10{fill:#FBED1D;}
	.st11{fill:#E8C062;}
	.st12{fill:#DAE378;}
	.st13{fill:#D3CC81;}
	.st14{fill:#95AACF;}
	.st15{fill:#E9C162;}
	.st16{fill:#DAE478;}
	.st17{fill:#D4CC82;}
	.st18{fill:#EB2D7C;}
	.st19{fill:#46C8F5;}
	.st20{fill:#FCEE1F;}
	.st21{opacity:0.5;fill:#EA2B7B;}
</style>
<g>
	<polygon class="st18" points="217.42,135.09 170.55,135.09 115.47,190.17 148.62,223.31 260.27,111.66 227.13,144.8 	"/>
	<polygon class="st6" points="227.13,78.51 236.83,88.22 260.27,111.66 260.27,111.65 227.13,78.51 	"/>
	<polygon class="st19" points="227.13,78.51 148.61,0 115.47,33.14 170.55,88.22 217.42,88.22 	"/>
	<polygon class="st14" points="236.83,135.09 217.42,135.09 227.13,144.8 260.27,111.66 236.83,88.22 	"/>
	<polygon class="st14" points="236.83,88.22 227.13,78.51 217.42,88.22 	"/>
	<polygon class="st20" points="170.55,88.22 0,88.22 0,135.09 170.55,135.09 193.98,111.66 	"/>
	<polygon class="st15" points="193.98,111.66 170.55,135.09 217.42,135.09 	"/>
	<polygon class="st16" points="217.42,88.22 170.55,88.22 193.98,111.66 	"/>
	<polygon class="st17" points="193.98,111.66 217.42,135.09 236.83,135.09 236.83,88.22 217.42,88.22 	"/>
</g>
</svg>
