<svg width="164" height="144" viewBox="0 0 164 144" fill="none" xmlns="http://www.w3.org/2000/svg">
<path d="M21.5467 2.27893C19.7025 6.58219 14.8526 9.70464 11.8539 13.2115C7.31275 18.5224 4.42329 24.3803 2.781 31.1319C-0.728338 45.5592 7.31721 53.6538 19.5744 60.5485C47.7594 76.4026 79.9882 70.6752 101.794 48.2634C105.671 44.2786 112.544 34.0359 109.346 27.638C105.984 20.9154 94.7353 25.9913 89.7345 27.4126C80.7669 29.9613 72.877 33.924 64.7135 38.2325C56.262 42.693 51.7944 45.538 48.1456 54.8004C46.0549 60.1076 46.8195 66.5903 46.9058 72.1573C47.0232 79.7275 50.1126 83.2403 55.4152 88.3308C69.3077 101.668 93.8583 98.6435 111.205 98.6435C123.046 98.6435 136.1 97.1277 147.891 98.6998C151.869 99.2302 160.783 105.56 161.473 109.351C162.057 112.566 161.692 116.679 161.529 119.945C161.294 124.638 158.49 124.807 156.683 128.06C154.713 131.606 152.635 137.036 155.443 141.247" stroke="white" stroke-width="3" stroke-linecap="round"/>
<path d="M144.222 134.944C144.514 136.403 146.699 137.601 147.604 138.773C148.639 140.115 149.27 139.867 150.639 140.627C151.451 141.078 154.159 142.981 155.14 142.195C156.574 141.048 157.97 139.136 159.092 137.693C160.121 136.371 161.667 135.042 162.188 133.477" stroke="white" stroke-width="3" stroke-linecap="round"/>
</svg>
