<svg xmlns="http://www.w3.org/2000/svg" viewBox="0 0 1725.65 832.36"><defs><style>.cls-1{fill:#eb2d7c;}.cls-2{fill:#46c8f5;}.cls-3{fill:#95aacf;}.cls-4{fill:#fcee1f;}.cls-5{fill:#e9c162;}.cls-6{fill:#dae478;}.cls-7{fill:#d4cc82;}.cls-8{fill:#fff;}</style></defs><g id="Layer_2" data-name="Layer 2"><g id="Layer_1-2" data-name="Layer 1"><polygon class="cls-1" points="1615.55 192.75 1697.24 239.91 1725.65 190.71 1643.96 143.54 1615.55 159.94 1615.55 192.75"/><polygon class="cls-1" points="1558.73 94.33 1477.03 47.17 1448.62 96.37 1530.32 143.54 1558.73 127.14 1558.73 94.33"/><polygon class="cls-2" points="1530.32 143.54 1448.62 190.71 1477.03 239.91 1558.73 192.75 1558.73 159.94 1530.32 143.54"/><polygon class="cls-2" points="1697.24 47.17 1615.55 94.34 1615.55 127.14 1643.96 143.54 1725.65 96.37 1697.24 47.17"/><polygon class="cls-3" points="1558.73 127.14 1530.32 143.54 1558.73 159.94 1558.73 127.14"/><polygon class="cls-3" points="1615.55 159.94 1643.96 143.54 1615.55 127.14 1615.55 159.94"/><polygon class="cls-4" points="1558.73 192.75 1558.73 287.08 1615.55 287.08 1615.55 192.75 1587.14 176.34 1558.73 192.75"/><polygon class="cls-4" points="1615.55 94.34 1615.55 0 1558.73 0 1558.73 94.33 1587.14 110.74 1615.55 94.34"/><polygon class="cls-5" points="1587.14 176.34 1615.55 192.75 1615.55 159.94 1587.14 176.34"/><polygon class="cls-5" points="1587.14 110.74 1558.73 94.33 1558.73 127.14 1587.14 110.74"/><polygon class="cls-6" points="1615.55 127.14 1615.55 94.34 1587.14 110.74 1615.55 127.14"/><polygon class="cls-6" points="1558.73 159.94 1558.73 192.75 1587.14 176.34 1558.73 159.94"/><polygon class="cls-7" points="1558.73 127.14 1558.73 159.94 1587.14 176.34 1615.55 159.94 1615.55 127.14 1587.14 110.74 1558.73 127.14"/><path class="cls-8" d="M11.22,115.34h76V533.52h-76Z"/><path class="cls-8" d="M271.56,593.61c45.94,0,84.82-19.45,84.82-73V502.9A145.75,145.75,0,0,1,357.55,487h-1.17c-17.67,26.51-43.59,40.64-83.64,40.64-86,0-134.88-69.5-134.88-151.95S184.39,226.07,271,226.07c65.38,0,88.94,38.29,88.94,38.29h1.77a55.65,55.65,0,0,1-.59-8.25v-23h70.09V515.27c0,103.07-80.11,142-158.44,142-37.7,0-77.75-10.61-106.61-25.92l22.38-57.14S226.21,593.61,271.56,593.61Zm86.58-217.35c0-68.32-33.57-86.58-74.21-86.58-45.35,0-70.68,33-70.68,83.64,0,52.42,27.1,91.29,75.39,91.29C324.57,464.61,358.14,444,358.14,376.26Z"/><path class="cls-8" d="M490.09,233.14h71.85v34.75a186,186,0,0,1-1.18,20.62h1.18c13-25.34,45.94-62.44,106.61-62.44,66.56,0,104.25,34.75,104.25,114.27V533.52H698.59V355.65c0-36.52-9.43-61.25-47.71-61.25-40,0-69.5,25.32-80.69,61.25-4.13,12.37-5.3,25.92-5.3,40.05V533.52h-74.8Z"/><path class="cls-8" d="M815.8,115.34H890V181.9H815.8Zm0,117.8h74.8V533.52H815.8Z"/><path class="cls-8" d="M968.36,297.34H929.48V237.85h40.64V151.27h73v86.58h68.32v59.49h-68.32V414c0,49.47,38.87,56.54,59.49,56.54a68.61,68.61,0,0,0,13.54-1.18V534.7a128.86,128.86,0,0,1-23,1.77c-41.82,0-124.86-12.37-124.86-113.09Z"/><path class="cls-8" d="M1297,226.07c86.58,0,133.11,63,133.11,142.54,0,8.83-1.77,28.86-1.77,28.86H1221c4.71,52.42,45.35,79.51,90.11,79.51,48.3,0,86.59-33,86.59-33l28.86,53.6s-45.94,43-120.74,43c-99.54,0-161.39-71.85-161.39-157.26C1144.47,290.86,1207.49,226.07,1297,226.07Zm57.72,120.16c-1.18-40.64-26.51-62.44-59.49-62.44-38.28,0-64.79,23.56-71.85,62.44Z"/><path class="cls-8" d="M42.42,746.91l17.91,9.89L54.2,767.49,36,756.8l.16,20.27H24.19l.16-20.1L6.28,767.49,0,756.8l18.07-9.89L0,737l6.28-10.84,18.07,10.69-.16-20.11H36.13L36,737,54.2,726.17,60.33,737Z"/><path class="cls-8" d="M123.7,722.85c26,0,39.38,13.42,39.38,13.42l-9.55,14.33a45.59,45.59,0,0,0-28.19-10.15c-23.72,0-36.4,16.42-36.4,36.41,0,23,15.66,37.89,35.5,37.89,16,0,26.56-11,26.56-11V791.33H134.74V774.77h33.57v55.8H151.89v-5.08c0-2.23.15-4.47.15-4.47h-.3s-11,11.34-30.73,11.34c-27.9,0-51.92-21.64-51.92-54.91C69.09,746.72,92.22,722.85,123.7,722.85Z"/><path class="cls-8" d="M186.67,754.48h18.2v13.13a53.4,53.4,0,0,1-.29,5.37h.29c3.44-10.89,12.54-19.55,24.17-19.55a21.6,21.6,0,0,1,3.44.3v18.65a32.55,32.55,0,0,0-4.48-.3c-8.06,0-17.16,4.63-20.74,16a40.9,40.9,0,0,0-1.64,12.38v30.14h-19Z"/><path class="cls-8" d="M284,782.83h2.54v-1.05c0-10-6.26-13.43-14.62-13.43-10.89,0-20.89,7.31-20.89,7.31l-7.16-13.57a51.34,51.34,0,0,1,29.84-9.4c20,0,31.63,11,31.63,30.28v47.6H287.83V824.3a48.07,48.07,0,0,1,.3-5.37h-.3c.15,0-5.82,13.43-23.12,13.43-13.58,0-25.81-8.51-25.81-23.73C238.9,784.47,271.57,782.83,284,782.83Zm-14.47,34.75c10,0,17.16-10.73,17.16-20v-1.8h-3.28c-9.7,0-25.37,1.35-25.37,11.94C258,812.81,261.72,817.58,269.48,817.58Z"/><path class="cls-8" d="M354.24,752.69c16.71,0,21.93,9.7,21.93,9.7h.3s-.15-1.94-.15-4.33V724.64h18.94V830.57h-17.9V824.3a38.38,38.38,0,0,1,.3-4.92h-.3s-6.41,13-23.87,13c-20.59,0-33.72-16.26-33.72-39.84C319.77,768.35,334.1,752.69,354.24,752.69Zm3.58,63.71c9.85,0,19.1-7.17,19.1-24,0-11.78-6.27-23.42-18.95-23.42-10.45,0-19.1,8.5-19.1,23.57C338.87,807,346.63,816.4,357.82,816.4Z"/><path class="cls-8" d="M415.12,754.48h18.95v45.06c0,9.25,2.39,15.51,11.79,15.51,13.72,0,21.33-12.08,21.33-25.66V754.48h18.95v76.09h-18.2v-8.66a48.07,48.07,0,0,1,.3-5.37h-.3c-3.73,7.91-13.43,15.82-26.41,15.82-16.26,0-26.41-8.21-26.41-29Z"/><path class="cls-8" d="M545.68,782.83h2.54v-1.05c0-10-6.27-13.43-14.63-13.43-10.89,0-20.88,7.31-20.88,7.31l-7.17-13.57a51.35,51.35,0,0,1,29.85-9.4c20,0,31.62,11,31.62,30.28v47.6H549.56V824.3a48.07,48.07,0,0,1,.3-5.37h-.3c.15,0-5.82,13.43-23.13,13.43-13.57,0-25.81-8.51-25.81-23.73C500.62,784.47,533.3,782.83,545.68,782.83Zm-14.47,34.75c10,0,17.15-10.73,17.15-20v-1.8h-3.28c-9.69,0-25.36,1.35-25.36,11.94C519.72,812.81,523.45,817.58,531.21,817.58Z"/><path class="cls-8" d="M589.55,770.74h-9.84V755.67H590V733.74h18.5v21.93h17.31v15.07H608.5v29.54c0,12.53,9.85,14.32,15.07,14.32a17.29,17.29,0,0,0,3.43-.3v16.57a33.1,33.1,0,0,1-5.81.44c-10.6,0-31.64-3.13-31.64-28.64Z"/><path class="cls-8" d="M675.8,752.69c21.93,0,33.72,16,33.72,36.1,0,2.24-.45,7.31-.45,7.31H656.56c1.19,13.28,11.48,20.14,22.82,20.14,12.24,0,21.93-8.35,21.93-8.35l7.31,13.58A47.55,47.55,0,0,1,678,832.36c-25.22,0-40.88-18.2-40.88-39.84C637.16,769.1,653.12,752.69,675.8,752.69Zm14.62,30.44c-.3-10.3-6.71-15.82-15.07-15.82-9.69,0-16.41,6-18.2,15.82Z"/><path class="cls-8" d="M795.09,752.69c21.93,0,33.71,16,33.71,36.1,0,2.24-.44,7.31-.44,7.31H775.84c1.19,13.28,11.49,20.14,22.83,20.14,12.23,0,21.93-8.35,21.93-8.35l7.31,13.58a47.56,47.56,0,0,1-30.59,10.89c-25.21,0-40.87-18.2-40.87-39.84C756.45,769.1,772.41,752.69,795.09,752.69Zm14.62,30.44c-.3-10.3-6.71-15.82-15.07-15.82-9.7,0-16.41,6-18.2,15.82Z"/><path class="cls-8" d="M873,804.45a36.44,36.44,0,0,1-2.09,4l-13.28,22.08h-21l25.07-38.49-24.47-37.6h21.49l11.78,20.74C871.63,777.16,873,780,873,780h.3s1.34-2.83,2.53-4.77l11.79-20.74h21.48l-24.47,37.6,25.07,38.49h-21l-13.28-22.08a35.58,35.58,0,0,1-2.08-4Z"/><path class="cls-8" d="M922.67,724.64h19v36.7a64.18,64.18,0,0,1-.3,6.42h.3c3.72-7.31,13-15.07,26.25-15.07,16.86,0,26.41,8.8,26.41,28.94v48.94h-18.8V785.51c0-9.25-2.38-15.51-12.08-15.51-10,0-17.76,6.56-20.59,15.81a34.12,34.12,0,0,0-1.19,9.85v34.91h-19Z"/><path class="cls-8" d="M1014.14,724.64h18.8V741.5h-18.8Zm0,29.84h18.95v76.09h-18.95Z"/><path class="cls-8" d="M1054,724.64h19v32.67a63.93,63.93,0,0,1-.3,6.42h.3s6.71-11,22.82-11c20.59,0,33.72,16.26,33.72,39.83,0,24.17-14.77,39.84-34.91,39.84-15.82,0-22.68-11.34-22.68-11.34h-.3a43.64,43.64,0,0,1,.3,5.22v4.33H1054Zm37.3,91.76c10.44,0,19.09-8.51,19.09-23.58,0-14.47-7.76-23.87-18.94-23.87-9.85,0-19.1,7.16-19.1,24C1072.33,804.75,1078.59,816.4,1091.28,816.4Z"/><path class="cls-8" d="M1145.15,724.64H1164V741.5h-18.8Zm0,29.84h18.95v76.09h-18.95Z"/><path class="cls-8" d="M1188.27,770.74h-9.85V755.67h10.3V733.74h18.49v21.93h17.31v15.07h-17.31v29.54c0,12.53,9.85,14.32,15.08,14.32a17.29,17.29,0,0,0,3.43-.3v16.57a33.3,33.3,0,0,1-5.82.44c-10.6,0-31.63-3.13-31.63-28.64Z"/><path class="cls-8" d="M1241.24,724.64H1260V741.5h-18.8Zm0,29.84h19v76.09h-19Z"/><path class="cls-8" d="M1317.19,752.69c23.27,0,41.92,16.56,41.92,39.83,0,23.42-18.65,39.84-41.77,39.84-23.28,0-41.93-16.42-41.93-39.84C1275.41,769.25,1294.06,752.69,1317.19,752.69Zm.15,63.55c12.23,0,22.52-9.55,22.52-23.72,0-14-10.29-23.72-22.52-23.72-12.39,0-22.68,9.7-22.68,23.72C1294.66,806.69,1305,816.24,1317.34,816.24Z"/><path class="cls-8" d="M1374.34,754.48h18.2v8.8a47,47,0,0,1-.3,5.22h.3c3.29-6.41,11.64-15.81,27-15.81,16.85,0,26.4,8.8,26.4,28.94v48.94h-18.79V785.51c0-9.25-2.39-15.51-12.09-15.51-10.14,0-17.6,6.41-20.44,15.51a32.24,32.24,0,0,0-1.34,10.15v34.91h-19Z"/></g></g></svg>